<?xml version="1.0" encoding="utf-8"?>
<!-- Generator: Adobe Illustrator 24.0.1, SVG Export Plug-In . SVG Version: 6.00 Build 0)  -->
<svg version="1.1" id="Inverno" xmlns="http://www.w3.org/2000/svg" xmlns:xlink="http://www.w3.org/1999/xlink" x="0px" y="0px"
	 viewBox="0 0 915 1356" style="enable-background:new 0 0 915 1356;" xml:space="preserve">
<style type="text/css">
	.st0{fill:#D8AE80;stroke:#F5911E;stroke-width:0.5;stroke-miterlimit:10;}
	.st1{fill:#FFDFA6;stroke:#F5911E;stroke-width:0.5;stroke-miterlimit:10;}
	.st2{fill:#D0AE80;stroke:#F5911E;stroke-width:0.5;stroke-miterlimit:10;}
	.st3{fill:#F0D3AD;stroke:#F5911E;stroke-width:0.5;stroke-miterlimit:10;}
	.st4{fill:#BC9463;stroke:#F5911E;stroke-width:0.5;stroke-miterlimit:10;}
	.st5{fill:#F2DCBD;stroke:#F5911E;stroke-width:0.5;stroke-miterlimit:10;}
</style>
<title>ranking2</title>
<g>
	<path class="st0" d="M187.4,906.2C86.1,662.7,100.2,638.5,74.5,339.6c-11.8-2.3-23.7-7.7-35.4-17.9
		c31.3,426.1,139.6,740.6,28.1,1144.2l356.2-30.8c-4.2-58.9-19-121.2-23.3-180.1c-11.1-3.7-11.6-5.9-22.6-13.6
		C310.3,1193,239.2,1028.3,187.4,906.2z"/>
	<path class="st1" d="M152.6,315c-29.7,10.6-60.2,27.1-90.5,20.7c25.5,298.9,43.1,575.6,121.3,828c49.1,158.5,113,190,177.1,238.7
		c10.5,7.7,52.2,2.4,62.7,6.2c-28-389.5-99.3-708.6-127.3-1098.1C247.5,296.8,199.2,298.3,152.6,315z"/>
	<polygon class="st2" points="42,341.6 303.8,329.9 329,282.1 12.2,299.5 	"/>
	<polygon class="st3" points="0,225.7 12.2,301.3 326.8,282.1 322.5,193.5 261.6,198.2 265.8,231.3 204.2,236.1 201.3,199.7 
		111.3,206.7 119,244.3 57.4,249.1 54.4,211.2 	"/>
	<path class="st2" d="M211.5,979.2c-10.9-13.2-4.8-48.9-3.1-65.1c2.1-20,7.1-43.3,25.7-54.4c34.4-20.6,67,8.3,74.3,41.4
		c4.9,22.1,10.7,47.4,10.6,69.8L211.5,979.2z"/>
	<path class="st4" d="M226.6,974.1c-7.7-9.3-3.3-34.4-2.2-45.8c1.5-14,5-30.4,18.1-38.2c24.2-14.4,47.1,5.9,52.2,29
		c3.5,15.6,7.5,33.3,7.5,49.1L226.6,974.1z"/>
	<path class="st0" d="M676.6,958.7c-45.8-240.6-32.8-281.4-3.3-554.4c-10.8-5.2-20.3-13.5-27.7-24c-46.6,388-61.5,717.1-100,1105.7
		l244.4-1.1c6.5-53.6,4.5-112.6,11-166.2c-9-5.9-9.1-7.9-17.3-17.2C733.7,1242.9,700.4,1079.6,676.6,958.7z"/>
	<path class="st1" d="M746.9,394.4c-27.7,2.8-57,10.7-82.3-2c-29.7,275.2-60.5,547.9-36.3,793.3c15.2,154.1,62.4,216.8,109.6,275.3
		c7.8,9.3,135.2,17.7,143.7,23.5c-80.8-339.7-52.7-704-9.5-1061.3C832.6,399.7,790.3,390,746.9,394.4z"/>
	<polygon class="st2" points="642.6,399.3 873.4,437.6 908.6,404.3 628.3,363.8 	"/>
	<polygon class="st3" points="632.5,295.8 628.3,363.8 908.6,404.3 919.2,330.8 865.3,323 862.5,352.5 808,344.7 812.6,312.5 
		733,301 732.3,335.2 677.8,327.3 682.7,293.8 	"/>
	<path class="st2" d="M670.7,997.3c-6.9-13.6,5.4-43.4,10-57.2c5.7-16.9,14.7-36.2,33-42.3c33.9-11.2,56.6,20.4,56.5,50.5
		c0,20.2,0.1,43.3-4.4,62.7L670.7,997.3z"/>
	<path class="st4" d="M684.8,995.8c-4.8-9.6,3.8-30.5,7.1-40.2c4-11.9,10.3-25.4,23.2-29.7c23.8-7.8,39.8,14.3,39.7,35.5
		c0,14.2,0,30.4-3.1,44.1L684.8,995.8z"/>
	<path class="st0" d="M538.6,1133.7c97.1-273,55.2-632.5,61-958.3c14.5-3.9,27.9-11.7,39.2-22.7c-2.2,463.8-34.7,856.7-47.5,1319.7
		l-190.4-4.9c0.2-64.1,0.4-128.3,0.6-192.4c13-5.4,25.3-12.5,36.8-21.4C511.6,1195.1,488.7,1270.7,538.6,1133.7z"/>
	<path class="st1" d="M488.5,161.7c36.8,8.7,75,23.5,111,13.8c-5.8,325.7,36.1,685.2-61,958.3c-49.9,137-13.5,235.9-86.8,294.6
		c-12.1,9.3-70.2,6.3-82.6,11.4C353.8,1036,322,594.1,315,170.4C372.3,151,430.8,148.1,488.5,161.7z"/>
	<path class="st2" d="M537.8,837.2c12.1-17.3,1.2-60.6-2.5-80.4c-4.5-24.4-12.9-52.6-36.9-64.4c-44.2-22-81.6,16.7-87.5,58
		c-3.9,27.7-8.7,59.4-6.4,86.9L537.8,837.2z"/>
	<path class="st4" d="M518.7,832.3c8.5-12.1,0.8-42.6-1.7-56.5c-3.1-17.1-9.1-36.9-25.9-45.3c-31.1-15.5-57.4,11.7-61.5,40.8
		c-2.8,19.5-6.1,41.7-4.5,61.1H518.7z"/>
	<polygon class="st2" points="638.6,188 314.9,192.9 277.3,112 669.6,112 	"/>
	<polygon class="st5" points="677.4,17.9 669.6,112 277.3,112 277.3,9.1 352.8,9.1 350.8,50.1 427.1,50.1 427.1,5.2 538.5,5.2 
		532.7,52.1 608.9,52.1 608.9,5.2 	"/>
	<path class="st4" d="M579.7,1439.1c28.4-118.3,19.3-356.9,26.1-487.5c4.7-91.6,11.8-184.4,26.8-274
		c-22.1,219.9-39.3,588-19.1,799.2c0.6,6.2-8.2-17.3-9.9-11.9c-1,3.2-3.1,5.6-5.7,6.8c-28,15.2,21,16.9-6.7,11.6
		c-4.4-0.8-8.9-2.1-12.3-8.2c-3.4-6.1-5.1-18.7-2.5-28L579.7,1439.1z"/>
	<path class="st4" d="M333.3,697.2l19,730.3c0,0,8.2,14.3,16.9,12.1C377.8,1437.5,333.3,697.2,333.3,697.2z"/>
	<path class="st2" d="M508.9,407.8h-41.1V259.2l-40.4,13.4v-35.3l77.7-30.5h3.8V407.8z"/>
	<path class="st4" d="M499.5,394.2h-31.7V257.6l-31.1,12.3v-32.5l59.8-28h2.9L499.5,394.2z"/>
	<path class="st2" d="M254.3,475.3l-55.7,6.7l15.3-27.4c8.3-12.8,14.3-22.9,17.8-30.3c3.3-6.7,5.7-13.7,7.3-21
		c1.3-6.5,1.6-13.2,0.8-19.8c-1.9-15.8-7.5-27.4-16.8-34.8c-9.3-7.4-21.6-10.2-36.9-8.4c-9.2,1-17.9,4.7-25,10.5
		c-7.2,6-12.6,13.9-15.6,22.8c-3.3,9.5-4.4,19.6-3.1,29.5l1.3,6.9l34.3-4.1l-0.9-8.3l-2,0.3c-0.7-7,0.1-13.1,2.5-18.3
		c2.5-5.5,6.2-8.5,11.2-9.1c5.1-0.6,9.1,0.8,12.3,4.3c3.1,3.5,5.1,8.9,6,16.1c1.1,9-3.1,21.8-12.5,38.3L156,491.8l3.1,25.5
		l98.8-11.9L254.3,475.3z"/>
	<path class="st2" d="M738.5,484.4l13.4,2c10.6,1.6,16.8-3.6,18.6-15.5c0.7-4.6,0-8.6-2.1-11.9c-2.1-3.3-5.4-5.3-10.1-6
		c-3.6-0.6-7.3,0.2-10.4,2.3c-3.1,1.9-5.1,5.2-5.6,8.8l-28.4-4.2c1.8-14.2,11.7-26,25.3-30.4c7-2.3,14.5-2.9,21.8-1.8
		c13.7,2,23.9,7.2,30.7,15.5c6.8,8.3,9.2,18.7,7.4,31.2c-0.9,6.1-3.4,11.7-7.4,16.4c-4,4.9-9.4,8.6-16,11
		c5.9,3.4,10.6,8.5,13.6,14.6c2.9,6,3.8,13.1,2.6,21.2c-1.9,12.5-7.6,22-17.1,28.3c-9.5,6.3-21.2,8.5-34.9,6.4
		c-7.8-1.1-15.2-4-21.6-8.6c-6.1-4.1-10.8-10-13.6-16.9c-2.6-6.7-3.4-14.1-2.2-22l28.6,4.2c-0.7,4.2,0.4,8.5,2.9,11.9
		c2.4,3.5,6.3,5.8,10.5,6.4c5,0.7,9.2-0.3,12.7-3c3.4-2.7,5.5-6.6,6.3-11.6c1-7.1,0.2-12.3-2.4-15.8s-6.7-5.5-12.2-6.3l-13.8-2
		L738.5,484.4z"/>
	<path class="st4" d="M743.4,484.9l10.7,1.6c8.4,1.2,13.5-4.1,15.3-16c0.7-4.6,0.2-8.6-1.4-11.8c-1.5-3.1-4.4-5.3-7.9-5.6
		c-3-0.4-6.1,0.5-8.4,2.6c-2.6,2.3-4.3,5.4-4.7,8.9l-22.6-3.3c1.1-7.4,3.5-13.8,7.2-19.2c3.4-5.2,8.3-9.3,13.9-11.8
		c5.4-2.5,11.5-3.3,17.4-2.4c10.9,1.6,18.9,6.4,24,14.5c5.2,8.1,6.8,18.3,5,30.8c-0.8,5.9-3,11.6-6.4,16.6
		c-3.3,4.9-7.8,8.9-13.2,11.4c4.8,3.5,8.5,8.4,10.4,14.1c2.1,5.9,2.6,13,1.4,21.1c-1.9,12.5-6.7,22.1-14.5,28.6
		c-7.8,6.6-17.2,9-28.1,7.4c-6.3-0.9-12.2-3.6-17-7.9c-5-4.3-8.6-10-10.3-16.4c-1.9-6.6-2.3-13.9-1.1-21.8l22.7,3.3
		c-0.7,4,0,8.2,2,11.8c2,3.5,4.7,5.5,8.2,6c3.8,0.7,7.6-0.6,10.2-3.4c2.8-2.8,4.6-6.7,5.3-11.7c1-7.1,0.5-12.3-1.5-15.6
		c-2-3.3-5.2-5.3-9.5-5.9l-11-1.6L743.4,484.9z"/>
	<path class="st4" d="M244.3,506.5l-81.4,7.5l-2.2-23.9l32.6-56.9c7.9-15.1,11.5-26.9,10.8-35.3c-0.6-6.8-2.2-11.9-4.7-15.2
		c-2.3-3.2-6.1-4.9-10-4.5c-4.1,0.4-7.2,3.1-9.4,8c-2.1,5-2.9,11-2.2,18.1l-27.1,2.5c-0.9-9.2,0-18.6,2.9-27.4
		c2.8-8.6,7.2-15.4,13.1-20.7c5.7-5.1,13-8.3,20.7-8.9c12.6-1.1,22.7,1.9,30.2,9.2c7.5,7.3,12,18.3,13.4,33.1
		c0.6,6.2,0.3,12.4-0.9,18.4c-1.4,6.7-3.5,13.1-6.3,19.3c-3,6.8-8,16-15.1,27.6l-12.9,25l46-4.2L244.3,506.5z"/>
</g>
</svg>
